<?xml version="1.0" encoding="utf-8"?>
<!-- Generator: Adobe Illustrator 18.0.0, SVG Export Plug-In . SVG Version: 6.00 Build 0)  -->
<!DOCTYPE svg PUBLIC "-//W3C//DTD SVG 1.1//EN" "http://www.w3.org/Graphics/SVG/1.1/DTD/svg11.dtd">
<svg version="1.1" id="Layer_1" xmlns="http://www.w3.org/2000/svg" xmlns:xlink="http://www.w3.org/1999/xlink" x="0px" y="0px"
	 viewBox="0 298.7 611.3 194.7" enable-background="new 0 298.7 611.3 194.7" xml:space="preserve">
<path fill="#FFFFFF" d="M265,363.4h-85.8l7-25.6H272L265,363.4z M206.9,406.5h46.2l7-25.6h-85.8l-20.3,73.5h39.6L206.9,406.5z
	 M304.2,427.9c-1.1-0.7-1.8-1.4-2.1-2.5c0-0.4,0-0.7,0-1.1c0-0.4,0-0.7,0-0.7l15.4-56c0.4-1.8,1.4-2.8,2.5-3.5
	c1.1-0.7,3.2-1.1,6-1.1h42.7l7-25.6h-59.9c-10.9,0-18.6,1.4-23.1,3.9s-7.4,7-9.5,13.3l-21.7,79.8c-0.4,1.1-0.4,2.5-0.7,3.5
	c0,1.4,0,2.5,0.4,3.5c1.1,3.9,3.5,7,7.7,9.5c4.2,2.1,9.1,3.5,15.1,3.5h63l7-25.6h-45.9C306.4,428.6,305.3,428.2,304.2,427.9
	 M67.2,337.5l-27,97c-0.4,1.1-0.4,2.5-0.7,3.5c0,1.4,0,2.5,0.4,3.5c1.1,3.9,3.5,7,7.7,9.5c4.2,2.1,9.1,3.5,15.1,3.5h44.8
	c10.9,0,18.6-1.4,23.1-3.9c4.6-2.5,7.4-7,9.5-13.3l27.7-99.8h-39.9l-24.2,86.8c-0.4,1.8-1.4,2.8-2.5,3.5c-1.1,0.7-3.2,1.1-6,1.1h-7
	c-1.4,0-2.8-0.4-3.9-0.7c-1.1-0.7-1.8-1.4-2.1-2.5c0-0.4,0-0.7,0-1.1c0-0.4,0-0.7,0-0.7l23.8-86.1H67.2V337.5z M563.7,441.5H370.1
	l-3.5,13h193.6L563.7,441.5z M408.2,393.2l-3.2,11.9h8.8l-3.2,10.9c-2.8,0.7-6.7,1.1-9.8,1.1c-6.3,0-8.1-2.5-7.4-6.3
	c0-1.1,0.4-2.1,0.7-3.2l6.3-22.8c1.4-6,4.6-9.1,11.9-9.1c5.3,0,13.3,1.1,18.6,2.5l4.6-12.3c-4.9-1.8-13.7-3.2-20.3-3.2
	c-17.5,0-25.2,7-28.4,19.3l-7.7,28.4c-0.4,1.4-0.7,2.8-0.7,4.2c-1.1,9.5,4.9,15.8,20.3,15.8c9.1,0,16.8-1.8,23.1-4.2l9.1-32.2h-22.8
	V393.2z M467.1,410l33.3-46.6h-16.5l-20,30.1l-4.6-30.1h-14.7l8.1,46.6l-4.9,18.9h14.7L467.1,410z M544.8,428.6h14l13.7-65.5h-14.4
	l-27.7,42.4l-4.6-42.4h-14.4l-21.4,65.5h14.4l11.9-35.7l3.2,27.3h14.7l18.6-27.3L544.8,428.6z"/>
</svg>
