<?xml version="1.0" encoding="utf-8"?>
<!-- Generator: Adobe Illustrator 18.0.0, SVG Export Plug-In . SVG Version: 6.00 Build 0)  -->
<!DOCTYPE svg PUBLIC "-//W3C//DTD SVG 1.1//EN" "http://www.w3.org/Graphics/SVG/1.1/DTD/svg11.dtd">
<svg version="1.1" id="Layer_1" xmlns="http://www.w3.org/2000/svg" xmlns:xlink="http://www.w3.org/1999/xlink" x="0px" y="0px"
	 viewBox="39.5 636 533.6 117.2" enable-background="new 39.5 636 533.6 117.2" xml:space="preserve">
<path fill="#FFFFFF" d="M453.2,708.7l-8.1-46.7h14.7l4.6,30.1l20-30.1H501l-33.3,46.7l-4.6,18.9h-14.7L453.2,708.7z M505,727.3
	l11.9-35.7l3.2,27.3h14.7l18.6-27.3l-8,35.7h14l13.7-65.6h-14.4L531,704.2l-4.6-42.4H512l-21.4,65.6H505z M399.2,729.1
	c9.1,0,16.8-1.8,23.1-4.2l9.1-32.2h-22.8v-0.4l-3.1,11.5h8.8l-3.2,10.9c-2.8,0.7-6.7,1.1-9.8,1.1c-6.3,0-8.1-2.5-7.4-6.3
	c0-1.1,0.4-2.1,0.7-3.2l6.3-22.8c1.4-6,4.6-9.1,11.9-9.1c5.3,0,13.3,1.1,18.6,2.5l4.6-12.3c-4.9-1.8-13.7-3.2-20.3-3.2
	c-17.5,0-25.2,7-28.4,19.3l-7.7,28.4c-0.4,1.4-0.7,2.8-0.7,4.2C377.7,722.8,383.7,729.1,399.2,729.1z"/>
<path fill="#D20A0A" d="M370.5,740.2h193.8l-3.5,13H367L370.5,740.2z M154.2,753.1h39.6l13.3-48h46.3l7-25.6h-85.9L154.2,753.1z
	 M304.5,726.6c-1.1-0.7-1.8-1.4-2.1-2.5c0-0.4,0-0.7,0-1.1s0-0.7,0-0.7l15.4-56.1c0.4-1.8,1.4-2.8,2.5-3.5s3.2-1.1,6-1.1h42.7
	l7-25.6h-60c-10.9,0-18.6,1.4-23.1,3.9c-4.5,2.5-7.4,7-9.5,13.3l-21.7,79.9c-0.4,1.1-0.4,2.5-0.7,3.5c0,1.4,0,2.5,0.4,3.5
	c1.1,3.9,3.5,7,7.7,9.5c4.2,2.1,9.1,3.5,15.1,3.5h63.1l7-25.6h-46C306.8,727.3,305.6,726.9,304.5,726.6z M272.3,636.4h-85.9l-7,25.6
	h85.9L272.3,636.4z M128,636.1L103.8,723c-0.4,1.8-1.4,2.8-2.5,3.5s-3.2,1.1-6,1.1h-7c-1.4,0-2.8-0.4-3.9-0.7
	c-1.1-0.7-1.8-1.4-2.1-2.5c0-0.4,0-0.7,0-1.1s0-0.7,0-0.7l23.8-86.2H67.3v-0.3l-27,97.1c-0.4,1.1-0.4,2.5-0.7,3.5
	c0,1.4,0,2.5,0.4,3.5c1.1,3.9,3.5,7,7.7,9.5c4.2,2.1,9.1,3.5,15.1,3.5h44.9c10.9,0,18.6-1.4,23.1-3.9c4.6-2.5,7.4-7,9.5-13.3
	l27.7-99.9H128z"/>
</svg>
